HIERARCHY
ROOT Bip01
{
  OFFSET 15.7446 31.5610 57.6474
  CHANNELS 6 Xposition Yposition Zposition Zrotation Xrotation Yrotation
  JOINT Bip01_Footsteps
  {
    OFFSET 53.2821 -0.0001 8.1953
    CHANNELS 6 Xposition Yposition Zposition Zrotation Xrotation Yrotation
    End Site
    {
      OFFSET 0 0 0
    }
  }
  JOINT b_Hips
  {
    OFFSET 0.0000 0.0000 0.0000
    CHANNELS 6 Xposition Yposition Zposition Zrotation Xrotation Yrotation
    JOINT b_Spine
    {
      OFFSET 10.4409 -1.6220 0.0000
      CHANNELS 6 Xposition Yposition Zposition Zrotation Xrotation Yrotation
      JOINT b_Spine1
      {
        OFFSET 8.8514 -0.0090 0.0000
        CHANNELS 6 Xposition Yposition Zposition Zrotation Xrotation Yrotation
        JOINT b_Spine2
        {
          OFFSET 11.3035 -0.0088 -0.0000
          CHANNELS 6 Xposition Yposition Zposition Zrotation Xrotation Yrotation
          JOINT b_Spine3
          {
            OFFSET 11.0297 -0.0113 0.0000
            CHANNELS 6 Xposition Yposition Zposition Zrotation Xrotation Yrotation
            JOINT b__Neck
            {
              OFFSET 14.9480 -3.1935 0.0000
              CHANNELS 6 Xposition Yposition Zposition Zrotation Xrotation Yrotation
              JOINT b__Neck1
              {
                OFFSET 5.4958 -0.0043 -0.0000
                CHANNELS 6 Xposition Yposition Zposition Zrotation Xrotation Yrotation
                JOINT b__Neck2
                {
                  OFFSET 5.5266 -0.0049 0.0000
                  CHANNELS 6 Xposition Yposition Zposition Zrotation Xrotation Yrotation
                  JOINT b_Head
                  {
                    OFFSET 6.1093 0.0000 -0.0000
                    CHANNELS 6 Xposition Yposition Zposition Zrotation Xrotation Yrotation
                    JOINT Bip01_HeadNub
                    {
                      OFFSET 28.6688 -0.0000 0.0000
                      CHANNELS 6 Xposition Yposition Zposition Zrotation Xrotation Yrotation
                      End Site
                      {
                        OFFSET 0 0 0
                      }
                    }
                    JOINT Dog_Jaw
                    {
                      OFFSET 0.6075 2.3575 -0.0000
                      CHANNELS 6 Xposition Yposition Zposition Zrotation Xrotation Yrotation
                      End Site
                      {
                        OFFSET 0 0 0
                      }
                    }
                  }
                }
              }
            }
            JOINT b_LeftClav
            {
              OFFSET 10.4683 2.1257 3.5190
              CHANNELS 6 Xposition Yposition Zposition Zrotation Xrotation Yrotation
              JOINT b_LeftArm
              {
                OFFSET 7.3453 0.0000 0.0000
                CHANNELS 6 Xposition Yposition Zposition Zrotation Xrotation Yrotation
                JOINT b_LeftForeArm
                {
                  OFFSET 23.3863 -0.0000 0.0000
                  CHANNELS 6 Xposition Yposition Zposition Zrotation Xrotation Yrotation
                  JOINT b_LeftHand
                  {
                    OFFSET 21.5040 -0.0000 0.0000
                    CHANNELS 6 Xposition Yposition Zposition Zrotation Xrotation Yrotation
                    JOINT b__LeftFinger
                    {
                      OFFSET 1.5926 6.2126 -0.0138
                      CHANNELS 6 Xposition Yposition Zposition Zrotation Xrotation Yrotation
                      JOINT Bip01_L_Finger0Nub
                      {
                        OFFSET 23.3657 0.0000 0.0000
                        CHANNELS 6 Xposition Yposition Zposition Zrotation Xrotation Yrotation
                        End Site
                        {
                          OFFSET 0 0 0
                        }
                      }
                    }
                  }
                }
                JOINT Dog_LeftArmor002
                {
                  OFFSET 4.2035 4.4457 12.7354
                  CHANNELS 6 Xposition Yposition Zposition Zrotation Xrotation Yrotation
                  End Site
                  {
                    OFFSET 0 0 0
                  }
                }
              }
            }
            JOINT b_RightClav
            {
              OFFSET 10.4683 2.1257 -3.5189
              CHANNELS 6 Xposition Yposition Zposition Zrotation Xrotation Yrotation
              JOINT b_RightArm
              {
                OFFSET 7.3453 0.0000 -0.0000
                CHANNELS 6 Xposition Yposition Zposition Zrotation Xrotation Yrotation
                JOINT b_RightForeArm
                {
                  OFFSET 23.3863 0.0000 -0.0000
                  CHANNELS 6 Xposition Yposition Zposition Zrotation Xrotation Yrotation
                  JOINT b_RightHand
                  {
                    OFFSET 21.5040 0.0000 0.0000
                    CHANNELS 6 Xposition Yposition Zposition Zrotation Xrotation Yrotation
                    JOINT b_RightFinger
                    {
                      OFFSET 1.5926 6.2126 0.0138
                      CHANNELS 6 Xposition Yposition Zposition Zrotation Xrotation Yrotation
                      JOINT Bip01_R_Finger0Nub
                      {
                        OFFSET 23.3657 -0.0000 0.0000
                        CHANNELS 6 Xposition Yposition Zposition Zrotation Xrotation Yrotation
                        End Site
                        {
                          OFFSET 0 0 0
                        }
                      }
                    }
                  }
                }
                JOINT Dog_RightArmor002
                {
                  OFFSET 4.2034 4.4457 -12.7351
                  CHANNELS 6 Xposition Yposition Zposition Zrotation Xrotation Yrotation
                  End Site
                  {
                    OFFSET 0 0 0
                  }
                }
              }
            }
          }
        }
      }
    }
    JOINT b_Tail001
    {
      OFFSET -4.7889 3.8598 0.8608
      CHANNELS 6 Xposition Yposition Zposition Zrotation Xrotation Yrotation
      JOINT b_Tail002
      {
        OFFSET 5.0654 0.0000 -0.0000
        CHANNELS 6 Xposition Yposition Zposition Zrotation Xrotation Yrotation
        JOINT b_Tail003
        {
          OFFSET 4.7760 0.0000 -0.0000
          CHANNELS 6 Xposition Yposition Zposition Zrotation Xrotation Yrotation
          JOINT b_Tail004
          {
            OFFSET 4.5284 -0.0000 0.0000
            CHANNELS 6 Xposition Yposition Zposition Zrotation Xrotation Yrotation
            JOINT b_Tail005
            {
              OFFSET 9.7173 -0.0000 -0.0001
              CHANNELS 6 Xposition Yposition Zposition Zrotation Xrotation Yrotation
              JOINT b_Tail006
              {
                OFFSET 8.2617 0.0001 0.0000
                CHANNELS 6 Xposition Yposition Zposition Zrotation Xrotation Yrotation
                JOINT b_Tail007
                {
                  OFFSET 9.7599 -0.0001 0.0000
                  CHANNELS 6 Xposition Yposition Zposition Zrotation Xrotation Yrotation
                  JOINT b_Tail008
                  {
                    OFFSET 11.1530 0.0000 -0.0000
                    CHANNELS 6 Xposition Yposition Zposition Zrotation Xrotation Yrotation
                    JOINT b_Tail009
                    {
                      OFFSET 10.3039 0.0000 0.0000
                      CHANNELS 6 Xposition Yposition Zposition Zrotation Xrotation Yrotation
                      End Site
                      {
                        OFFSET 0 0 0
                      }
                    }
                  }
                }
              }
            }
          }
        }
      }
    }
    JOINT Dog_LeftTail001
    {
      OFFSET -11.9878 -1.7857 10.1900
      CHANNELS 6 Xposition Yposition Zposition Zrotation Xrotation Yrotation
      JOINT Dog_LeftTail002
      {
        OFFSET 8.4424 0.0000 0.0000
        CHANNELS 6 Xposition Yposition Zposition Zrotation Xrotation Yrotation
        JOINT Dog_LeftTail003
        {
          OFFSET 9.9501 0.0000 -0.0000
          CHANNELS 6 Xposition Yposition Zposition Zrotation Xrotation Yrotation
          JOINT Dog_LeftTail004
          {
            OFFSET 9.4342 0.0000 -0.0000
            CHANNELS 6 Xposition Yposition Zposition Zrotation Xrotation Yrotation
            JOINT Dog_LeftTail005
            {
              OFFSET 9.7173 0.0001 0.0001
              CHANNELS 6 Xposition Yposition Zposition Zrotation Xrotation Yrotation
              JOINT Dog_LeftTail006
              {
                OFFSET 8.2618 -0.0000 -0.0000
                CHANNELS 6 Xposition Yposition Zposition Zrotation Xrotation Yrotation
                JOINT Dog_LeftTail007
                {
                  OFFSET 9.7599 0.0000 0.0000
                  CHANNELS 6 Xposition Yposition Zposition Zrotation Xrotation Yrotation
                  JOINT Dog_LeftTail008
                  {
                    OFFSET 11.1529 -0.0001 -0.0001
                    CHANNELS 6 Xposition Yposition Zposition Zrotation Xrotation Yrotation
                    JOINT Dog_LeftTail009
                    {
                      OFFSET 10.3039 -0.0000 0.0000
                      CHANNELS 6 Xposition Yposition Zposition Zrotation Xrotation Yrotation
                      End Site
                      {
                        OFFSET 0 0 0
                      }
                    }
                  }
                }
              }
            }
          }
        }
      }
    }
    JOINT b_LeftLegUpper
    {
      OFFSET -0.0000 0.0000 9.9422
      CHANNELS 6 Xposition Yposition Zposition Zrotation Xrotation Yrotation
      JOINT b_LeftLeg
      {
        OFFSET 25.9795 0.0000 0.0000
        CHANNELS 6 Xposition Yposition Zposition Zrotation Xrotation Yrotation
        JOINT b_LeftLeg1
        {
          OFFSET 21.2087 0.0000 -0.0000
          CHANNELS 6 Xposition Yposition Zposition Zrotation Xrotation Yrotation
          JOINT b_LeftAnkle
          {
            OFFSET 10.4341 -0.0000 0.0000
            CHANNELS 6 Xposition Yposition Zposition Zrotation Xrotation Yrotation
            JOINT b_LeftToe
            {
              OFFSET 5.6676 6.5983 0.0000
              CHANNELS 6 Xposition Yposition Zposition Zrotation Xrotation Yrotation
              JOINT Bip01_L_Toe0Nub
              {
                OFFSET 8.6279 0.0000 -0.0000
                CHANNELS 6 Xposition Yposition Zposition Zrotation Xrotation Yrotation
                End Site
                {
                  OFFSET 0 0 0
                }
              }
            }
            JOINT b_LeftToe002
            {
              OFFSET 5.6741 -2.3619 -0.5306
              CHANNELS 6 Xposition Yposition Zposition Zrotation Xrotation Yrotation
              End Site
              {
                OFFSET 0 0 0
              }
            }
          }
        }
      }
      JOINT Dog_LeftArmor001
      {
        OFFSET -2.6287 -3.4254 -3.1462
        CHANNELS 6 Xposition Yposition Zposition Zrotation Xrotation Yrotation
        End Site
        {
          OFFSET 0 0 0
        }
      }
    }
    JOINT b_RightLegUpper
    {
      OFFSET 0.0000 -0.0000 -9.9422
      CHANNELS 6 Xposition Yposition Zposition Zrotation Xrotation Yrotation
      JOINT b_RightLeg
      {
        OFFSET 25.9795 0.0000 0.0000
        CHANNELS 6 Xposition Yposition Zposition Zrotation Xrotation Yrotation
        JOINT b_RightLeg1
        {
          OFFSET 21.2087 0.0000 0.0000
          CHANNELS 6 Xposition Yposition Zposition Zrotation Xrotation Yrotation
          JOINT b_RightAnkle
          {
            OFFSET 10.4341 -0.0000 -0.0000
            CHANNELS 6 Xposition Yposition Zposition Zrotation Xrotation Yrotation
            JOINT b_RightToe
            {
              OFFSET 5.6676 6.5983 -0.0000
              CHANNELS 6 Xposition Yposition Zposition Zrotation Xrotation Yrotation
              JOINT Bip01_R_Toe0Nub
              {
                OFFSET 8.6279 -0.0000 0.0000
                CHANNELS 6 Xposition Yposition Zposition Zrotation Xrotation Yrotation
                End Site
                {
                  OFFSET 0 0 0
                }
              }
            }
            JOINT b_RightToe002
            {
              OFFSET 5.6741 -2.3620 0.5304
              CHANNELS 6 Xposition Yposition Zposition Zrotation Xrotation Yrotation
              End Site
              {
                OFFSET 0 0 0
              }
            }
          }
        }
      }
      JOINT Dog_RightArmor001
      {
        OFFSET -2.6288 -3.4254 3.1460
        CHANNELS 6 Xposition Yposition Zposition Zrotation Xrotation Yrotation
        End Site
        {
          OFFSET 0 0 0
        }
      }
    }
  }
}
MOTION
Frames: 4
Frame Time: 0.00833333
-6.07526 57.3546 -12.1652 84.5022 -29.0125 -175.835 53.2821 -6.35e-05 8.19533 -90 -81.2558 -180 0 0 0 -89.9999 -4.1675e-14 -90 10.4409 -1.622 1.78e-05 -4.44365 -2.70667 -4.49885 8.8514 -0.0089989 0 -6.80318 2.38498 0.0108003 11.3035 -0.0087814 0 -7.5087 6.30533 -1.74923 11.0297 -0.0113029 -3.55271e-15 -2.55383 4.47049 -3.94505 14.948 -3.19349 8.6e-06 -46.6934 -30.6161 -12.7023 5.49578 -0.0042877 -1.06581e-14 2.23088 23.6271 -7.48671 5.52657 -0.0048637 -1.77636e-15 3.28907 0.497367 2.33193 6.10934 0 -3.55271e-15 48.4842 -6.50691 3.72263 28.6688 -1.42109e-14 -3.55271e-15 -3.97569e-16 9.93923e-17 3.18055e-15 0.607494 2.35752 -7.6e-06 -156.427 -0.000147608 180 10.4683 2.1257 3.51896 -177.77 12.0122 -84.3841 7.34534 1.42109e-14 1.9e-06 -84.53 -85.8875 4.65106 23.3863 -1.9e-06 1e-06 2.23674 -0.662207 -1.2168 21.504 0 0 -82.8479 -5.77022 1.28215 1.59262 6.21256 -0.0138378 5.28636 -7.46672 -5.78201 23.3657 0 1e-06 7.95139e-16 -2.08724e-15 -0 4.20345 4.44573 12.7354 172.377 0.21838 -87.1877 10.4683 2.12572 -3.51895 175.074 6.03226 90.1045 7.34534 7.10543e-15 -1.9e-06 -36.407 65.1565 -50.5199 23.3863 1.9e-06 3.55271e-15 -9.97161 7.95139e-16 2.18663e-15 21.504 3.8e-06 1e-06 -95.2706 -12.7007 8.136 1.59262 6.21257 0.0138388 -17.0574 -10.828 1.36558 23.3657 0 1e-06 180 -1.59028e-15 9.54166e-15 4.20337 4.4457 -12.7351 172.377 -0.218352 87.1876 -4.78895 3.85983 0.86083 132.087 -7.02966 -5.77126 5.0654 4.578e-05 -6.84e-06 -9.6164 16.5177 0.22072 4.77605 3.648e-06 -6.432e-06 -3.97803 10.2152 -0.653163 4.52841 -1.0992e-05 2.7456e-05 1.59028e-15 6.36111e-15 -3.18055e-15 9.71734 -4.2e-05 -5.72e-05 -3.53113e-31 3.18055e-15 6.36111e-15 8.26175 8.01e-05 5.7e-06 -7.95139e-15 3.18055e-15 6.36111e-15 9.75986 -6.48e-05 2.86e-05 1.59028e-15 -3.18055e-15 6.36111e-15 11.153 2.67e-05 -2.1e-05 4.77083e-15 0 -3.18055e-15 10.3039 1.14e-05 4.2e-05 -1.59028e-15 -9.54166e-15 3.18055e-15 -11.9878 -1.78568 10.19 170.606 3.62573 1.11034 8.44238 1.53e-05 4.2e-05 -0 -3.97569e-16 -0 9.95005 7.6e-06 -2.86e-05 4.41391e-32 -3.97569e-16 6.36111e-15 9.43418 7.10543e-15 -4.58e-05 -0 0 3.18055e-15 9.71733 6.87e-05 0.0001106 -3.97569e-16 -1.98785e-16 3.18055e-15 8.26175 -2.29e-05 -4.77e-05 -7.95139e-16 0 3.18055e-15 9.75994 2.86e-05 3.05e-05 -3.97569e-16 3.97569e-16 -0 11.1529 -7.25e-05 -5.91e-05 -1.19271e-15 3.97569e-16 -0 10.3039 -7.6e-06 0 1.10348e-32 1.98785e-16 -3.18055e-15 -1.14e-05 1.53e-05 9.94222 -105.288 14.4454 -172.88 25.9795 1e-06 0 -39.4077 -0.26027 -1.18242 21.2087 1.9e-06 -1e-06 46.7407 9.14874 -9.18226 10.4341 -1.9e-06 1e-06 -13.6407 -2.74308 4.40417 5.66763 6.59832 3.55271e-15 94.028 15.8563 -7.07257 8.62785 0 3.55271e-15 -180 -4.53229e-14 1.27222e-14 5.67414 -2.36194 -0.530567 -75.8081 4.38708 5.33411 -2.62874 -3.42539 -3.14618 29.7499 1.82752 90.2264 1.53e-05 -1.53e-05 -9.94222 -103.724 -21.007 176.89 25.9795 0 1e-06 -35.2003 -0.0763118 2.59625 21.2087 8.88178e-16 1.9e-06 45.7567 -15.0875 11.9548 10.4341 -1.9e-06 -1e-06 -14.0516 17.4484 -4.08324 5.66763 6.59831 0 88.0786 1.34489 -0.378858 8.62785 8.88178e-16 0 2.38542e-15 0 -0 5.67412 -2.36198 0.530355 -75.808 -4.38692 -5.33418 -2.62878 -3.42545 3.14601 29.7498 -1.82753 -90.2266
-6.07526 57.3546 -12.1652 84.5022 -29.0125 -175.835 53.2821 -6.35e-05 8.19533 -90 -81.2558 -180 0 0 0 -89.9999 -4.1675e-14 -90 10.4409 -1.622 1.78e-05 -4.44365 -2.70667 -4.49885 8.8514 -0.0089989 0 -6.80318 2.38498 0.0108003 11.3035 -0.0087814 0 -7.5087 6.30533 -1.74923 11.0297 -0.0113029 -3.55271e-15 -2.55383 4.47049 -3.94505 14.948 -3.19349 8.6e-06 -46.6934 -30.6161 -12.7023 5.49578 -0.0042877 -1.06581e-14 2.23088 23.6271 -7.48671 5.52657 -0.0048637 -1.77636e-15 3.28907 0.497367 2.33193 6.10934 0 -3.55271e-15 48.4842 -6.50691 3.72263 28.6688 -1.42109e-14 -3.55271e-15 -3.97569e-16 9.93923e-17 3.18055e-15 0.607494 2.35752 -7.6e-06 -156.427 -0.000147608 180 10.4683 2.1257 3.51896 -177.77 12.0122 -84.3841 7.34534 1.42109e-14 1.9e-06 -84.53 -85.8875 4.65106 23.3863 -1.9e-06 1e-06 2.23674 -0.662207 -1.2168 21.504 0 0 -82.8479 -5.77022 1.28215 1.59262 6.21256 -0.0138378 5.28636 -7.46672 -5.78201 23.3657 0 1e-06 7.95139e-16 -2.08724e-15 -0 4.20345 4.44573 12.7354 172.377 0.21838 -87.1877 10.4683 2.12572 -3.51895 175.074 6.03226 90.1045 7.34534 7.10543e-15 -1.9e-06 -36.407 65.1565 -50.5199 23.3863 1.9e-06 3.55271e-15 -9.97161 7.95139e-16 2.18663e-15 21.504 3.8e-06 1e-06 -95.2706 -12.7007 8.136 1.59262 6.21257 0.0138388 -17.0574 -10.828 1.36558 23.3657 0 1e-06 180 -1.59028e-15 9.54166e-15 4.20337 4.4457 -12.7351 172.377 -0.218352 87.1876 -4.78895 3.85983 0.86083 132.087 -7.02966 -5.77126 5.0654 4.578e-05 -6.84e-06 -9.6164 16.5177 0.22072 4.77605 3.648e-06 -6.432e-06 -3.97803 10.2152 -0.653163 4.52841 -1.0992e-05 2.7456e-05 1.59028e-15 6.36111e-15 -3.18055e-15 9.71734 -4.2e-05 -5.72e-05 -3.53113e-31 3.18055e-15 6.36111e-15 8.26175 8.01e-05 5.7e-06 -7.95139e-15 3.18055e-15 6.36111e-15 9.75986 -6.48e-05 2.86e-05 1.59028e-15 -3.18055e-15 6.36111e-15 11.153 2.67e-05 -2.1e-05 4.77083e-15 0 -3.18055e-15 10.3039 1.14e-05 4.2e-05 -1.59028e-15 -9.54166e-15 3.18055e-15 -11.9878 -1.78568 10.19 170.606 3.62573 1.11034 8.44238 1.53e-05 4.2e-05 -0 -3.97569e-16 -0 9.95005 7.6e-06 -2.86e-05 4.41391e-32 -3.97569e-16 6.36111e-15 9.43418 7.10543e-15 -4.58e-05 -0 0 3.18055e-15 9.71733 6.87e-05 0.0001106 -3.97569e-16 -1.98785e-16 3.18055e-15 8.26175 -2.29e-05 -4.77e-05 -7.95139e-16 0 3.18055e-15 9.75994 2.86e-05 3.05e-05 -3.97569e-16 3.97569e-16 -0 11.1529 -7.25e-05 -5.91e-05 -1.19271e-15 3.97569e-16 -0 10.3039 -7.6e-06 0 1.10348e-32 1.98785e-16 -3.18055e-15 -1.14e-05 1.53e-05 9.94222 -105.288 14.4454 -172.88 25.9795 1e-06 0 -39.4077 -0.26027 -1.18242 21.2087 1.9e-06 -1e-06 46.7407 9.14874 -9.18226 10.4341 -1.9e-06 1e-06 -13.6407 -2.74308 4.40417 5.66763 6.59832 3.55271e-15 94.028 15.8563 -7.07257 8.62785 0 3.55271e-15 -180 -4.53229e-14 1.27222e-14 5.67414 -2.36194 -0.530567 -75.8081 4.38708 5.33411 -2.62874 -3.42539 -3.14618 29.7499 1.82752 90.2264 1.53e-05 -1.53e-05 -9.94222 -103.724 -21.007 176.89 25.9795 0 1e-06 -35.2003 -0.0763118 2.59625 21.2087 8.88178e-16 1.9e-06 45.7567 -15.0875 11.9548 10.4341 -1.9e-06 -1e-06 -14.0516 17.4484 -4.08324 5.66763 6.59831 0 88.0786 1.34489 -0.378858 8.62785 8.88178e-16 0 2.38542e-15 0 -0 5.67412 -2.36198 0.530355 -75.808 -4.38692 -5.33418 -2.62878 -3.42545 3.14601 29.7498 -1.82753 -90.2266
-6.70928 58.651 -14.6798 91.2489 -29.722 -164.032 53.2821 -6.35e-05 8.19533 -90 -81.2558 -180 0 0 0 -89.9999 -4.1675e-14 -90 10.4409 -1.622 1.78e-05 -4.45362 -2.71347 -4.61223 8.8514 -0.0089989 0 -6.92561 2.41677 -0.0289652 11.3035 -0.0087814 0 -7.60753 6.34428 -1.77049 11.0297 -0.0113029 -1.77636e-15 -2.57798 4.49676 -3.94607 14.948 -3.19349 8.6e-06 -46.7616 -30.8987 -12.4549 5.49578 -0.0042877 -7.10543e-15 2.08003 23.8718 -7.65125 5.52657 -0.0048637 -1.77636e-15 3.09987 0.594871 2.39441 6.10934 -7.10543e-15 7.10543e-15 48.1299 -6.4544 3.82094 28.6688 0 0 1.59028e-15 1.59028e-15 -6.36111e-15 0.607494 2.35752 -7.6e-06 -156.427 -0.000147608 180 10.4683 2.1257 3.51896 -177.746 11.983 -84.4814 7.34534 1.42109e-14 1.9e-06 -85.2799 -85.8354 3.91745 23.3863 -1.9e-06 1e-06 2.14758 -0.660313 -1.21783 21.504 1.42109e-14 -1.77636e-15 -83.1841 -5.77761 1.24832 1.59262 6.21256 -0.0138378 4.58726 -8 -6.07481 23.3657 0 1e-06 3.18055e-15 3.97569e-16 1.59028e-15 4.20345 4.44573 12.7354 172.377 0.21838 -87.1877 10.4683 2.12572 -3.51895 175.004 6.04799 90.0804 7.34534 1.42109e-14 -1.9e-06 -36.704 65.0338 -50.237 23.3863 1.9e-06 0 -10.0315 7.95139e-16 -1.09332e-15 21.504 3.8e-06 1e-06 -95.5942 -12.6428 8.18994 1.59262 6.21257 0.0138388 -20.3008 -12.1855 1.36734 23.3657 0 1e-06 180 1.74931e-14 3.18055e-15 4.20337 4.4457 -12.7351 172.377 -0.218352 87.1876 -4.78895 3.85983 0.86083 131.903 -7.09527 -6.22028 5.0654 4.578e-05 -6.84e-06 -9.44167 19.4267 -0.818845 4.77605 3.648e-06 -6.432e-06 -3.48643 9.85155 -1.04047 4.52841 -1.0992e-05 2.7456e-05 -3.18055e-15 0 -0 9.71734 -4.2e-05 -5.72e-05 -4.77083e-15 0 -0 8.26175 8.01e-05 5.7e-06 -3.18055e-15 -3.18055e-15 3.18055e-15 9.75986 -6.48e-05 2.86e-05 -1.11319e-14 -3.18055e-15 -0 11.153 2.67e-05 -2.1e-05 -4.77083e-15 3.18055e-15 -6.36111e-15 10.3039 1.14e-05 4.2e-05 -3.18055e-15 3.18055e-15 -9.54166e-15 -11.9878 -1.78568 10.19 170.606 3.62573 1.11034 8.44238 1.53e-05 4.2e-05 -4.41391e-32 3.97569e-16 6.36111e-15 9.95005 7.6e-06 -2.86e-05 1.59028e-15 0 6.36111e-15 9.43418 0 -4.58e-05 1.59028e-15 1.98785e-15 1.27222e-14 9.71733 6.87e-05 0.0001106 -3.97569e-15 -1.19271e-15 6.36111e-15 8.26175 -2.29e-05 -4.77e-05 1.32417e-31 -7.95139e-16 9.54166e-15 9.75994 2.86e-05 3.05e-05 -2.38542e-15 -7.95139e-16 6.36111e-15 11.1529 -7.25e-05 -5.91e-05 -1.59028e-15 -3.97569e-16 3.18055e-15 10.3039 -7.6e-06 0 -1.59028e-15 0 -0 -1.14e-05 1.53e-05 9.94222 -105.254 14.4306 -172.956 25.9795 1e-06 0 -39.286 -0.26278 -1.18187 21.2087 1.9e-06 -1e-06 46.8255 9.05196 -9.08523 10.4341 -1.9e-06 1e-06 -13.6611 -2.74466 4.40319 5.66763 6.59832 0 94.1229 16.2715 -7.58439 8.62785 -8.88178e-16 -3.55271e-15 -180 1.78906e-14 -0 5.67414 -2.36194 -0.530567 -75.8081 4.38708 5.33411 -2.62874 -3.42539 -3.14618 29.7499 1.82752 90.2264 1.53e-05 -1.53e-05 -9.94222 -103.833 -21.072 176.808 25.9795 0 1e-06 -35.1649 -0.0747077 2.5963 21.2087 -3.55271e-15 1.9e-06 46.0005 -16.0327 12.3241 10.4341 -1.9e-06 -1e-06 -14.1148 18.1527 -3.89697 5.66763 6.59831 0 88.0266 1.05268 -0.481949 8.62785 0 0 -7.95139e-16 7.95139e-16 3.18055e-15 5.67412 -2.36198 0.530355 -75.808 -4.38692 -5.33418 -2.62878 -3.42545 3.14601 29.7498 -1.82753 -90.2266
-6.74366 58.6499 -14.7165 91.2739 -29.9147 -163.971 53.2821 -6.35e-05 8.19533 -90 -81.2558 -180 0 0 0 -89.9999 -4.1675e-14 -90 10.4409 -1.622 1.78e-05 -4.4361 -2.75192 -4.75842 8.8514 -0.0089989 0 -7.00652 2.42187 -0.0721477 11.3035 -0.0087814 -1.77636e-15 -7.6581 6.36029 -1.791 11.0297 -0.0113029 -5.32907e-15 -2.55353 4.49926 -3.92926 14.948 -3.19349 8.6e-06 -46.742 -30.9108 -12.4294 5.49578 -0.0042877 0 2.09435 23.9157 -7.62738 5.52657 -0.0048637 -8.88178e-15 3.10447 0.599548 2.40552 6.10934 -7.10543e-15 -3.55271e-15 48.0779 -6.44745 3.80061 28.6688 1.42109e-14 3.55271e-15 -0 -4.37326e-15 -0 0.607494 2.35752 -7.6e-06 -156.427 -0.000147608 180 10.4683 2.1257 3.51896 -177.7 11.9647 -84.4709 7.34534 7.10543e-15 1.9e-06 -85.1858 -85.843 4.038 23.3863 -1.9e-06 1e-06 2.126 -0.659854 -1.21808 21.504 0 0 -83.173 -5.77737 1.24944 1.59262 6.21256 -0.0138378 4.59386 -7.99714 -6.06892 23.3657 0 1e-06 -0 3.18055e-15 -0 4.20345 4.44573 12.7354 172.377 0.21838 -87.1877 10.4683 2.12572 -3.51895 175.015 6.07216 90.0294 7.34534 -7.10543e-15 -1.9e-06 -36.7572 64.9961 -50.1967 23.3863 1.9e-06 3.55271e-15 -10.0069 2.38542e-15 -6.70898e-16 21.504 3.8e-06 1e-06 -95.6274 -12.6656 8.19047 1.59262 6.21257 0.0138388 -20.2946 -12.1635 1.36905 23.3657 0 1e-06 180 4.77083e-14 9.54166e-15 4.20337 4.4457 -12.7351 172.377 -0.218352 87.1876 -4.78895 3.85983 0.86083 131.751 -7.1223 -6.71872 5.0654 4.578e-05 -6.84e-06 -9.02761 20.6208 -2.48673 4.77605 3.648e-06 -6.432e-06 -3.15725 9.94417 -0.946848 4.52841 -1.0992e-05 2.7456e-05 -0 4.77083e-15 -0 9.71734 -4.2e-05 -5.72e-05 1.59028e-15 1.59028e-15 -0 8.26175 8.01e-05 5.7e-06 1.59028e-15 -3.18055e-15 3.18055e-15 9.75986 -6.48e-05 2.86e-05 -7.95139e-15 0 -0 11.153 2.67e-05 -2.1e-05 4.77083e-15 -7.95139e-15 -0 10.3039 1.14e-05 4.2e-05 -0 0 -3.18055e-15 -11.9878 -1.78568 10.19 170.606 3.62573 1.11034 8.44238 1.53e-05 4.2e-05 -2.20695e-31 1.98785e-15 6.36111e-15 9.95005 7.6e-06 -2.86e-05 -2.20695e-32 3.97569e-16 3.18055e-15 9.43418 1.42109e-14 -4.58e-05 7.95139e-16 0 6.36111e-15 9.71733 6.87e-05 0.0001106 1.59028e-15 3.97569e-16 3.18055e-15 8.26175 -2.29e-05 -4.77e-05 -7.95139e-16 -7.95139e-16 3.18055e-15 9.75994 2.86e-05 3.05e-05 7.95139e-16 7.95139e-16 9.54166e-15 11.1529 -7.25e-05 -5.91e-05 7.95139e-16 0 3.18055e-15 10.3039 -7.6e-06 3.55271e-15 7.95139e-16 0 3.18055e-15 -1.14e-05 1.53e-05 9.94222 -105.183 14.4444 -173.065 25.9795 1e-06 -3.55271e-15 -39.2091 -0.264366 -1.18151 21.2087 1.9e-06 -1e-06 46.789 8.86247 -8.98103 10.4341 -1.9e-06 1e-06 -13.68 -2.74611 4.40228 5.66763 6.59832 0 94.1002 16.2536 -7.56466 8.62785 0 3.55271e-15 -180 1.03368e-14 -9.54166e-15 5.67414 -2.36194 -0.530567 -75.8081 4.38708 5.33411 -2.62874 -3.42539 -3.14618 29.7499 1.82752 90.2264 1.53e-05 -1.53e-05 -9.94222 -103.946 -21.0483 176.709 25.9795 0 1e-06 -35.2134 -0.0769046 2.59623 21.2087 0 1.9e-06 46.0149 -16.145 12.4224 10.4341 -1.9e-06 -1e-06 -14.1016 18.1612 -3.88939 5.66763 6.59831 -8.88178e-16 88.0341 1.04869 -0.478635 8.62785 0 0 -1.59028e-15 0 3.18055e-15 5.67412 -2.36198 0.530356 -75.808 -4.38692 -5.33418 -2.62878 -3.42545 3.14601 29.7498 -1.82753 -90.2266
